# xmcd
#
# Track frame offsets: 
#        150
#        13952
#        28292
#        41033
#        54076
#        68833
#        81873
#        95016
#        108310
#        121768
#        134814
#        148219
#        161950
#        176259
#        189037
#        203228
#        217381
#        231427
#        244204
#        257634
#        271671
#        285639
#        298546
#        312207
#
# Disc length: 4355 seconds
#
# Revision: 0
# Processed by: cddbd v1.5.2PL0 Copyright (c) Steve Scherf et al.
# Submitted via: ExactAudioCopy v0.99pb5
#
DISCID=71110118
DTITLE=Barbara Demick - Nothing to Envy [5 of 10]
DYEAR=2010
DGENRE=Audiobook
TTITLE0=05-01
TTITLE1=05-02
TTITLE2=05-03
TTITLE3=05-04
TTITLE4=05-05
TTITLE5=05-06
TTITLE6=05-07
TTITLE7=05-08
TTITLE8=05-09
TTITLE9=05-10
TTITLE10=05-11
TTITLE11=05-12
TTITLE12=05-13
TTITLE13=05-14
TTITLE14=05-15
TTITLE15=05-16
TTITLE16=05-17
TTITLE17=05-18
TTITLE18=05-19
TTITLE19=05-20
TTITLE20=05-21
TTITLE21=05-22
TTITLE22=05-23
TTITLE23=05-24
EXTD=
EXTT0=
EXTT1=
EXTT2=
EXTT3=
EXTT4=
EXTT5=
EXTT6=
EXTT7=
EXTT8=
EXTT9=
EXTT10=
EXTT11=
EXTT12=
EXTT13=
EXTT14=
EXTT15=
EXTT16=
EXTT17=
EXTT18=
EXTT19=
EXTT20=
EXTT21=
EXTT22=
EXTT23=
PLAYORDER=
